<svg width="24.000000" height="24.000000" viewBox="0 0 24 24" fill="none" xmlns="http://www.w3.org/2000/svg" xmlns:xlink="http://www.w3.org/1999/xlink">
	<desc>
			Created with Pixso.
	</desc>
	<defs>
		<clipPath id="clip18_17">
			<rect id="Обновить" width="24.000000" height="24.000000" fill="white" fill-opacity="0"/>
		</clipPath>
	</defs>
	<g clip-path="url(#clip18_17)">
		<path id="path" d="M20.27 4.02L20.25 4C20.25 3.57 20.58 3.25 21 3.25C21.42 3.25 21.75 3.57 21.75 4L21.73 4.02L20.27 4.02ZM21.73 11.98L21.75 12C21.75 12.42 21.42 12.75 21 12.75C20.58 12.75 20.25 12.42 20.25 12L20.27 11.98L21.73 11.98Z" fill="#000000" fill-opacity="0" fill-rule="nonzero"/>
		<path id="path" d="M21 4L21 12" stroke="#FF8D00" stroke-opacity="1.000000" stroke-width="1.500000" stroke-linejoin="round" stroke-linecap="round"/>
		<path id="path" d="M2.27 12.02L2.25 12C2.25 11.58 2.58 11.25 3 11.25C3.41 11.25 3.75 11.58 3.75 12L3.72 12.02L2.27 12.02ZM3.72 19.98L3.75 20C3.75 20.42 3.41 20.75 3 20.75C2.58 20.75 2.25 20.42 2.25 20L2.27 19.98L3.72 19.98Z" fill="#000000" fill-opacity="0" fill-rule="nonzero"/>
		<path id="path" d="M3 12L3 20" stroke="#FF8D00" stroke-opacity="1.000000" stroke-width="1.500000" stroke-linejoin="round" stroke-linecap="round"/>
		<path id="path" d="M21.73 11.98L21.75 12C21.75 12.42 21.42 12.75 21 12.75C20.58 12.75 20.25 12.42 20.25 12L20.27 11.98L21.73 11.98ZM6.06 6.24L6.06 6.27C5.77 6.57 5.3 6.58 5 6.28C4.7 5.99 4.69 5.53 4.98 5.22L5.01 5.22L6.06 6.24ZM2.27 12.02L2.25 12C2.25 11.58 2.58 11.25 3 11.25C3.41 11.25 3.75 11.58 3.75 12L3.72 12.02L2.27 12.02ZM17.72 17.96L17.72 17.93C18.03 17.64 18.49 17.65 18.78 17.95C19.08 18.25 19.07 18.72 18.77 19.01L18.74 19.01L17.72 17.96Z" fill="#000000" fill-opacity="0" fill-rule="nonzero"/>
		<path id="path" d="M21 12C21 7.02 16.97 3 12 3C9.45 3 7.16 4.05 5.52 5.75M3 12C3 16.97 7.02 21 12 21C14.42 21 16.63 20.03 18.25 18.47" stroke="#FF8D00" stroke-opacity="1.000000" stroke-width="1.500000" stroke-linejoin="round" stroke-linecap="round"/>
	</g>
</svg>
