<svg width="24.000000" height="24.000000" viewBox="0 0 24 24" fill="none" xmlns="http://www.w3.org/2000/svg" xmlns:xlink="http://www.w3.org/1999/xlink">
	<desc>
			Created with Pixso.
	</desc>
	<defs>
		<clipPath id="clip18_52">
			<rect id="Сообщить об ошибках" width="24.000000" height="24.000000" fill="white" fill-opacity="0"/>
		</clipPath>
	</defs>
	<g clip-path="url(#clip18_52)">
		<path id="path" d="M12 2.5L1 21.5L23 21.5L12 2.5Z" fill="#000000" fill-opacity="0" fill-rule="evenodd"/>
		<path id="path" d="M1 21.5L23 21.5L12 2.5L1 21.5Z" stroke="#FF8D00" stroke-opacity="1.000000" stroke-width="1.500000" stroke-linejoin="round"/>
		<path id="path" d="M11.27 17.52L11.25 17.5C11.25 17.08 11.58 16.75 12 16.75C12.42 16.75 12.75 17.08 12.75 17.5L12.73 17.52L11.27 17.52ZM12.73 17.98L12.75 18C12.75 18.42 12.42 18.75 12 18.75C11.58 18.75 11.25 18.42 11.25 18L11.27 17.98L12.73 17.98Z" fill="#000000" fill-opacity="0" fill-rule="nonzero"/>
		<path id="path" d="M12 17.5L12 18" stroke="#FF8D00" stroke-opacity="1.000000" stroke-width="1.500000" stroke-linecap="round"/>
		<path id="path" d="M11.27 9.52L11.25 9.5C11.24 9.08 11.57 8.75 11.99 8.75C12.41 8.74 12.74 9.07 12.75 9.49L12.73 9.51L11.27 9.52ZM12.73 14.47L12.75 14.49C12.75 14.91 12.42 15.24 12 15.25C11.58 15.25 11.25 14.92 11.25 14.5L11.27 14.48L12.73 14.47Z" fill="#000000" fill-opacity="0" fill-rule="nonzero"/>
		<path id="path" d="M12 9.5L12 14.5" stroke="#FF8D00" stroke-opacity="1.000000" stroke-width="1.500000" stroke-linecap="round"/>
	</g>
</svg>
