<svg width="24.000000" height="24.000000" viewBox="0 0 24 24" fill="none" xmlns="http://www.w3.org/2000/svg" xmlns:xlink="http://www.w3.org/1999/xlink">
	<desc>
			Created with Pixso.
	</desc>
	<defs>
		<clipPath id="clip54_61">
			<rect id="Календарь" width="24.000000" height="24.000000" fill="white" fill-opacity="0"/>
		</clipPath>
	</defs>
	<g clip-path="url(#clip54_61)">
		<rect id="rect" x="2.000000" y="2.000000" rx="2.000000" width="20.000000" height="20.000000" fill="#000000" fill-opacity="0"/>
		<rect id="rect" x="2.000000" y="2.000000" rx="2.000000" width="20.000000" height="20.000000" stroke="#808080" stroke-opacity="1.000000" stroke-width="1.500000" stroke-linejoin="round"/>
		<path id="path" d="M2.02 7.72L2 7.75C1.57 7.75 1.25 7.41 1.25 7C1.25 6.58 1.57 6.25 2 6.25L2.02 6.27L2.02 7.72ZM21.98 6.27L22 6.25C22.42 6.25 22.75 6.58 22.75 7C22.75 7.41 22.42 7.75 22 7.75L21.98 7.72L21.98 6.27Z" fill="#000000" fill-opacity="0" fill-rule="nonzero"/>
		<path id="path" d="M2 7L22 7" stroke="#808080" stroke-opacity="1.000000" stroke-width="1.500000" stroke-linejoin="round" stroke-linecap="round"/>
		<line id="line" x1="2.000000" y1="5.500000" x2="2.000000" y2="11.500000" stroke="#808080" stroke-opacity="1.000000" stroke-width="1.500000"/>
		<line id="line" x1="22.000000" y1="5.500000" x2="22.000000" y2="11.500000" stroke="#808080" stroke-opacity="1.000000" stroke-width="1.500000"/>
		<path id="path" d="M14 11L14 18L18 18L18 11L14 11Z" fill="#000000" fill-opacity="0" fill-rule="evenodd"/>
		<path id="path" d="M14 18L18 18L18 11L14 11L14 18Z" stroke="#808080" stroke-opacity="1.000000" stroke-width="1.500000" stroke-linejoin="round"/>
		<path id="path" d="M6.02 11.73L6 11.75C5.57 11.75 5.25 11.42 5.25 11C5.25 10.58 5.57 10.25 6 10.25L6.02 10.27L6.02 11.73ZM6.02 18.73L6 18.75C5.57 18.75 5.25 18.42 5.25 18C5.25 17.58 5.57 17.25 6 17.25L6.02 17.27L6.02 18.73Z" fill="#000000" fill-opacity="0" fill-rule="nonzero"/>
		<path id="path" d="M6 11L10 11L10 18L6 18" stroke="#808080" stroke-opacity="1.000000" stroke-width="1.500000" stroke-linejoin="round" stroke-linecap="round"/>
		<path id="path" d="M7.02 15.23L7 15.25C6.57 15.25 6.25 14.92 6.25 14.5C6.25 14.08 6.57 13.75 7 13.75L7.02 13.77L7.02 15.23ZM9.97 13.77L10 13.75C10.42 13.75 10.75 14.08 10.75 14.5C10.75 14.92 10.42 15.25 10 15.25L9.97 15.23L9.97 13.77Z" fill="#000000" fill-opacity="0" fill-rule="nonzero"/>
		<path id="path" d="M7 14.5L10 14.5" stroke="#808080" stroke-opacity="1.000000" stroke-width="1.500000" stroke-linejoin="round" stroke-linecap="round"/>
	</g>
</svg>
