<svg width="24.000000" height="24.000000" viewBox="0 0 24 24" fill="none" xmlns="http://www.w3.org/2000/svg" xmlns:xlink="http://www.w3.org/1999/xlink">
	<desc>
			Created with Pixso.
	</desc>
	<defs>
		<clipPath id="clip9_74">
			<rect id="Календарь" width="24.000000" height="24.000000" fill="white" fill-opacity="0"/>
		</clipPath>
	</defs>
	<g clip-path="url(#clip9_74)">
		<rect id="rect" x="2.000000" y="5.000000" rx="2.000000" width="20.000000" height="15.000000" fill="#000000" fill-opacity="0"/>
		<rect id="rect" x="2.000000" y="5.000000" rx="2.000000" width="20.000000" height="15.000000" stroke="#808080" stroke-opacity="1.000000" stroke-width="1.500000" stroke-linejoin="round"/>
		<path id="path" d="M6.27 3.02L6.25 3C6.25 2.58 6.57 2.25 7 2.25C7.42 2.25 7.75 2.58 7.75 3L7.72 3.02L6.27 3.02ZM7.72 6.97L7.75 7C7.75 7.41 7.42 7.75 7 7.75C6.57 7.75 6.25 7.41 6.25 7L6.27 6.97L7.72 6.97Z" fill="#000000" fill-opacity="0" fill-rule="nonzero"/>
		<path id="path" d="M7 3L7 7" stroke="#808080" stroke-opacity="1.000000" stroke-width="1.500000" stroke-linecap="round"/>
		<path id="path" d="M7.02 12.23L7 12.25C6.57 12.25 6.25 11.92 6.25 11.5C6.25 11.08 6.57 10.75 7 10.75L7.02 10.77L7.02 12.23ZM12.48 10.77L12.5 10.75C12.92 10.75 13.25 11.08 13.25 11.5C13.25 11.92 12.92 12.25 12.5 12.25L12.48 12.23L12.48 10.77Z" fill="#000000" fill-opacity="0" fill-rule="nonzero"/>
		<path id="path" d="M7 11.5L12.5 11.5" stroke="#808080" stroke-opacity="1.000000" stroke-width="1.500000" stroke-linecap="round"/>
		<path id="path" d="M7.02 16.23L7 16.25C6.57 16.25 6.25 15.92 6.25 15.5C6.25 15.08 6.57 14.75 7 14.75L7.02 14.77L7.02 16.23ZM16.98 14.77L17 14.75C17.42 14.75 17.75 15.08 17.75 15.5C17.75 15.92 17.42 16.25 17 16.25L16.98 16.23L16.98 14.77Z" fill="#000000" fill-opacity="0" fill-rule="nonzero"/>
		<path id="path" d="M7 15.5L17 15.5" stroke="#808080" stroke-opacity="1.000000" stroke-width="1.500000" stroke-linecap="round"/>
		<path id="path" d="M16.27 3.02L16.25 3C16.25 2.58 16.58 2.25 17 2.25C17.42 2.25 17.75 2.58 17.75 3L17.73 3.02L16.27 3.02ZM17.73 6.97L17.75 7C17.75 7.41 17.42 7.75 17 7.75C16.58 7.75 16.25 7.41 16.25 7L16.27 6.97L17.73 6.97Z" fill="#000000" fill-opacity="0" fill-rule="nonzero"/>
		<path id="path" d="M17 3L17 7" stroke="#808080" stroke-opacity="1.000000" stroke-width="1.500000" stroke-linecap="round"/>
	</g>
</svg>
