<svg width="24.000000" height="24.000000" viewBox="0 0 24 24" fill="none" xmlns="http://www.w3.org/2000/svg" xmlns:xlink="http://www.w3.org/1999/xlink">
	<desc>
			Created with Pixso.
	</desc>
	<defs>
		<clipPath id="clip10_99">
			<rect id="Предварительный просмотр - закрыть" width="24.000000" height="24.000000" fill="white" fill-opacity="0"/>
		</clipPath>
	</defs>
	<g clip-path="url(#clip10_99)">
		<path id="path" d="M4.44 8.45L4.45 8.42C4.77 8.15 5.23 8.19 5.5 8.52C5.77 8.84 5.73 9.3 5.4 9.57L5.37 9.57L4.44 8.45ZM13.8 17.04L13.81 17.01C14.22 16.91 14.62 17.15 14.72 17.56C14.82 17.97 14.58 18.37 14.18 18.47L14.15 18.45L13.8 17.04ZM10.21 6.95L10.19 6.97C9.78 7.07 9.38 6.83 9.28 6.43C9.18 6.02 9.42 5.62 9.83 5.52L9.85 5.53L10.21 6.95ZM19.55 15.54L19.54 15.57C19.22 15.84 18.76 15.8 18.49 15.47C18.22 15.15 18.26 14.69 18.59 14.42L18.62 14.42L19.55 15.54Z" fill="#000000" fill-opacity="0" fill-rule="nonzero"/>
		<path id="path" d="M4.92 9C3.11 10.5 2 12 2 12C2 12 6.47 18 12 18C12.68 18 13.35 17.9 14 17.74M10.01 6.25C10.65 6.09 11.32 6 12 6C17.52 6 22 12 22 12C22 12 20.88 13.5 19.07 15" stroke="#808080" stroke-opacity="1.000000" stroke-width="1.500000" stroke-linejoin="round" stroke-linecap="round"/>
		<path id="path" d="M9.6 9.83L9.6 9.8C9.88 9.49 10.35 9.47 10.66 9.75C10.97 10.04 10.99 10.5 10.7 10.81L10.68 10.81L9.6 9.83ZM13.22 13.27L13.22 13.24C13.52 12.95 13.99 12.96 14.28 13.26C14.57 13.56 14.57 14.02 14.27 14.32L14.24 14.32L13.22 13.27Z" fill="#000000" fill-opacity="0" fill-rule="nonzero"/>
		<path id="path" d="M10.15 10.31C9.74 10.75 9.5 11.34 9.5 11.99C9.5 13.38 10.61 14.49 12 14.49C12.68 14.49 13.29 14.22 13.75 13.78" stroke="#808080" stroke-opacity="1.000000" stroke-width="1.500000" stroke-linejoin="round" stroke-linecap="round"/>
		<path id="path" d="M2.49 3.53L2.46 3.53C2.17 3.23 2.17 2.76 2.46 2.46C2.76 2.17 3.23 2.17 3.53 2.46L3.53 2.49L2.49 3.53ZM21.5 20.46L21.53 20.46C21.82 20.76 21.82 21.23 21.53 21.53C21.23 21.82 20.76 21.82 20.46 21.53L20.46 21.5L21.5 20.46Z" fill="#000000" fill-opacity="0" fill-rule="nonzero"/>
		<path id="path" d="M3 3L21 21" stroke="#808080" stroke-opacity="1.000000" stroke-width="1.500000" stroke-linejoin="round" stroke-linecap="round"/>
	</g>
</svg>
