<svg width="24.000000" height="24.000000" viewBox="0 0 24 24" fill="none" xmlns="http://www.w3.org/2000/svg" xmlns:xlink="http://www.w3.org/1999/xlink">
	<desc>
			Created with Pixso.
	</desc>
	<defs>
		<clipPath id="clip10_103">
			<rect id="Предварительный просмотр - Открыть" width="24.000000" height="24.000000" fill="white" fill-opacity="0"/>
		</clipPath>
	</defs>
	<g clip-path="url(#clip10_103)">
		<path id="path" d="M12 18C17.52 18 22 12 22 12C22 12 17.52 6 12 6C6.47 6 2 12 2 12C2 12 6.47 18 12 18Z" fill="#000000" fill-opacity="0" fill-rule="nonzero"/>
		<path id="path" d="M22 12C22 12 17.52 6 12 6C6.47 6 2 12 2 12C2 12 6.47 18 12 18C17.52 18 22 12 22 12Z" stroke="#808080" stroke-opacity="1.000000" stroke-width="1.500000" stroke-linejoin="round"/>
		<path id="path" d="M12 14.5C13.38 14.5 14.5 13.38 14.5 12C14.5 10.61 13.38 9.5 12 9.5C10.61 9.5 9.5 10.61 9.5 12C9.5 13.38 10.61 14.5 12 14.5Z" fill="#000000" fill-opacity="0" fill-rule="nonzero"/>
		<path id="path" d="M14.5 12C14.5 10.61 13.38 9.5 12 9.5C10.61 9.5 9.5 10.61 9.5 12C9.5 13.38 10.61 14.5 12 14.5C13.38 14.5 14.5 13.38 14.5 12Z" stroke="#808080" stroke-opacity="1.000000" stroke-width="1.500000" stroke-linejoin="round"/>
	</g>
</svg>
