<svg width="24.000000" height="24.000000" viewBox="0 0 24 24" fill="none" xmlns="http://www.w3.org/2000/svg" xmlns:xlink="http://www.w3.org/1999/xlink">
	<desc>
			Created with Pixso.
	</desc>
	<defs>
		<clipPath id="clip2_64">
			<rect id="Плюс" width="24.000000" height="24.000000" fill="white" fill-opacity="0"/>
		</clipPath>
	</defs>
	<g clip-path="url(#clip2_64)">
		<path id="path" d="M12.74 18.98L12.76 19C12.76 19.42 12.43 19.75 12.01 19.75C11.59 19.74 11.26 19.41 11.26 18.99L11.28 18.97L12.74 18.98ZM11.3 5.01L11.28 4.99C11.28 4.57 11.61 4.24 12.03 4.25C12.45 4.25 12.78 4.58 12.78 5L12.76 5.02L11.3 5.01Z" fill="#000000" fill-opacity="0" fill-rule="nonzero"/>
		<path id="path" d="M12.01 19L12.03 5" stroke="#808080" stroke-opacity="1.000000" stroke-width="1.500000" stroke-linejoin="round" stroke-linecap="round"/>
		<path id="path" d="M5.02 12.73L5 12.75C4.57 12.75 4.25 12.42 4.25 12C4.25 11.58 4.57 11.25 5 11.25L5.02 11.27L5.02 12.73ZM18.98 11.27L19 11.25C19.42 11.25 19.75 11.58 19.75 12C19.75 12.42 19.42 12.75 19 12.75L18.98 12.73L18.98 11.27Z" fill="#000000" fill-opacity="0" fill-rule="nonzero"/>
		<path id="path" d="M5 12L19 12" stroke="#808080" stroke-opacity="1.000000" stroke-width="1.500000" stroke-linejoin="round" stroke-linecap="round"/>
	</g>
</svg>
